:SAMPLES-PER-SECOND 30
:FULLY-SPECIFIED
:DEGREES
215
root  -16.975 34.6767 -11.9452 -174.218 32.5985 -179.487
RightUpLeg  -13.854 -0.00770197 -0.0741864
RightLeg  8.30977 9.82946 0.794221
RightFoot  1.35371 0.0012065 0.353098
RightToes  -48.0725 -0.285963 -0.350969
Spine  -2.03778 -1.28216 0.990327
Spine1  -3.81622 -2.47512 2.93201
HEad  -67.9037 -5.63374 6.06121
LeftShoulder1  -1.94126e-019 -3.10601e-018 -2.51263e-017
LeftArm  16.0044 -19.5898 -84.6774
LeftForeArm  163.202 -63.1968 -159.641
LeftHand  -1.23162 -3.8515 15.6681
RightShoulder  -4.96962e-017 0 -2.36833e-017
RightArm  4.04793 14.1058 74.8044
RightForeArm  -170.047 59.6804 164.701
RightHand  -0.426183 -3.89689 -32.5523
LeftUpLeg  -7.09287 18.1199 4.08618
LeftLeg  17.7816 25.0712 6.07311
LeftFoot  -4.76172 -0.0937738 -2.0935
LeftToes  -12.2991 1.7763e-006 6.54387e-008
216
root  -16.9521 34.6857 -12.0077 -174.327 31.9826 -179.368
RightUpLeg  -13.4246 -0.298194 -0.00798954
RightLeg  8.20985 9.51291 0.752247
RightFoot  0.898468 0.00444608 0.272859
RightToes  -47.9044 -0.284502 -0.352637
Spine  -2.1364 -1.07839 1.18045
Spine1  -3.99347 -2.03437 3.29606
HEad  -67.0442 -5.5849 5.78458
LeftShoulder1  -1.94126e-019 -3.10601e-018 -2.51263e-017
LeftArm  12.0693 -18.8786 -83.3887
LeftForeArm  162.64 -62.8982 -159.83
LeftHand  -1.2335 -3.04848 17.1225
RightShoulder  -4.96962e-017 0 -2.36833e-017
RightArm  0.143506 13.9572 73.7647
RightForeArm  -172.807 59.5675 164.54
RightHand  -0.0379404 -5.25125 -33.9368
LeftUpLeg  -6.90724 17.8902 4.25647
LeftLeg  17.7899 24.8202 6.02025
LeftFoot  -5.37303 -0.118188 -2.35677
LeftToes  -12.0225 1.7763e-006 6.54387e-008
217
root  -16.9383 34.6977 -12.0951 -174.382 31.3392 -179.313
RightUpLeg  -12.946 -0.952805 -0.0052311
RightLeg  7.84446 9.50938 0.69127
RightFoot  0.908104 0.00419489 0.273987
RightToes  -47.9607 -0.285257 -0.354529
Spine  -2.25715 -0.916005 1.37066
Spine1  -4.20805 -1.68285 3.66604
HEad  -65.785 -5.00359 5.27342
LeftShoulder1  -1.94126e-019 -3.10601e-018 -2.51263e-017
LeftArm  9.30018 -18.5505 -82.6221
LeftForeArm  162.203 -63.0243 -159.679
LeftHand  -1.19695 -2.14317 18.5472
RightShoulder  -4.96962e-017 0 -2.36833e-017
RightArm  -2.00783 14.3573 73.914
RightForeArm  -175.574 59.9258 164.084
RightHand  0.421054 -6.68175 -36.0696
LeftUpLeg  -6.82249 17.1609 4.27064
LeftLeg  17.8185 24.8239 6.03371
LeftFoot  -5.7771 -0.136793 -2.54896
LeftToes  -11.2325 1.7763e-006 6.54387e-008
218
root  -16.9287 34.705 -12.1871 -174.566 30.6369 -179.267
RightUpLeg  -12.3199 -1.47994 -0.0370102
RightLeg  7.40029 9.39794 0.61037
RightFoot  1.33119 0.000740091 0.339133
RightToes  -48.1978 -0.287357 -0.356444
Spine  -2.33465 -0.847162 1.66401
Spine1  -4.36193 -1.53401 4.24526
HEad  -64.7141 -3.5201 4.53648
LeftShoulder1  -1.94126e-019 -3.10601e-018 -2.51263e-017
LeftArm  9.67721 -18.6218 -82.5974
LeftForeArm  161.817 -63.4739 -159.263
LeftHand  -1.17091 -1.84261 18.8803
RightShoulder  -4.96962e-017 0 -2.36833e-017
RightArm  0.478086 15.6479 74.772
RightForeArm  -176.391 61.0048 163.319
RightHand  0.555592 -7.04324 -37.135
LeftUpLeg  -6.62661 16.0891 4.28084
LeftLeg  17.8405 25.0355 6.09126
LeftFoot  -5.89056 -0.143836 -2.63349
LeftToes  -10.3021 1.7763e-006 6.54387e-008
219
root  -16.9145 34.704 -12.2931 -174.797 29.9396 -179.25
RightUpLeg  -11.8205 -2.03985 -0.0927337
RightLeg  7.33801 9.33036 0.595877
RightFoot  1.4426 0.00138766 0.350668
RightToes  -48.1384 -0.290071 -0.358181
Spine  -2.38441 -0.839828 1.96773
Spine1  -4.49343 -1.53842 4.85335
HEad  -63.8908 -1.59224 4.08344
LeftShoulder1  -1.94126e-019 -3.10601e-018 -2.51263e-017
LeftArm  14.4788 -19.2537 -83.0327
LeftForeArm  162.543 -63.962 -158.919
LeftHand  -1.22179 -2.43789 18.2353
RightShoulder  -4.96962e-017 0 -2.36833e-017
RightArm  7.67042 17.2702 75.9435
RightForeArm  -174.487 62.7235 162.29
RightHand  0.21297 -6.05164 -35.3302
LeftUpLeg  -6.31984 15.3198 4.33409
LeftLeg  17.6753 25.0741 6.02646
LeftFoot  -5.01899 -0.10456 -2.22381
LeftToes  -10.7571 1.7763e-006 6.54387e-008
220
root  -16.9013 34.6918 -12.4073 -174.971 29.1048 -179.276
RightUpLeg  -11.5691 -2.80814 -0.184651
RightLeg  7.63186 9.38585 0.647522
RightFoot  1.73373 0.00112108 0.39218
RightToes  -48.3739 -0.292671 -0.35954
Spine  -2.35481 -0.812246 2.18135
Spine1  -4.49018 -1.5199 5.27527
HEad  -63.4695 0.11284 4.13111
LeftShoulder1  -1.94126e-019 -3.10601e-018 -2.51263e-017
LeftArm  20.785 -20.2901 -84.0062
LeftForeArm  163.039 -64.3035 -158.675
LeftHand  -1.02497 -0.238419 21.125
RightShoulder  -4.96962e-017 0 -2.36833e-017
RightArm  15.7878 18.6102 77.16
RightForeArm  -173.636 64.234 161.206
RightHand  0.187348 -5.91411 -38.1949
LeftUpLeg  -6.1489 14.9703 4.39255
LeftLeg  17.5834 24.6506 5.89146
LeftFoot  -4.10244 -0.0685921 -1.75337
LeftToes  -12.0964 1.7763e-006 6.54387e-008
221
root  -16.9139 34.6665 -12.4998 -175.189 27.9786 -179.383
RightUpLeg  -11.5286 -3.77309 -0.376134
RightLeg  8.27208 9.44506 0.757201
RightFoot  2.468 -0.000896592 0.513663
RightToes  -48.3456 -0.294427 -0.36032
Spine  -2.14362 -0.771155 2.30509
Spine1  -4.06014 -1.42953 5.51066
HEad  -64.158 1.57871 4.40068
LeftShoulder1  -1.94126e-019 -3.10601e-018 -2.51263e-017
LeftArm  17.0854 -19.2021 -83.4773
LeftForeArm  163.323 -63.2189 -159.642
LeftHand  -1.44897 -4.14699 17.8007
RightShoulder  -4.96962e-017 0 -2.36833e-017
RightArm  13.7828 18.1353 77.432
RightForeArm  -169.098 62.9052 162.651
RightHand  -0.0901337 -5.10027 -37.8499
LeftUpLeg  -6.24743 14.5765 4.35653
LeftLeg  17.9057 24.0549 5.89667
LeftFoot  -3.72115 -0.054892 -1.52808
LeftToes  -13.009 1.7763e-006 6.54387e-008
222
root  -16.9407 34.631 -12.5782 -175.521 26.6791 -179.522
RightUpLeg  -11.6158 -4.99931 -0.608528
RightLeg  9.3945 9.66075 0.964146
RightFoot  2.67609 -0.000165824 0.558354
RightToes  -48.5701 -0.294609 -0.360318
Spine  -2.0168 -0.669334 2.34096
Spine1  -3.77712 -1.21532 5.57768
HEad  -65.1187 2.23691 4.66796
LeftShoulder1  -1.94126e-019 -3.10601e-018 -2.51263e-017
LeftArm  14.6597 -19.7313 -83.0361
LeftForeArm  165.771 -63.0127 -160.055
LeftHand  -1.28997 -3.67147 16.7014
RightShoulder  -4.96962e-017 0 -2.36833e-017
RightArm  9.79497 17.9326 77.2503
RightForeArm  -169.871 61.6278 163.477
RightHand  -0.487161 -3.75037 -33.857
LeftUpLeg  -6.3856 13.8755 4.29371
LeftLeg  18.3239 23.4282 5.92815
LeftFoot  -2.71683 -0.0282502 -1.0297
LeftToes  -14.373 1.7763e-006 6.54387e-008
223
root  -16.975 34.5853 -12.6674 -176.034 25.2191 -179.685
RightUpLeg  -11.7538 -6.58822 -0.916811
RightLeg  11.0754 9.9861 1.29139
RightFoot  2.52445 0.0029085 0.548616
RightToes  -48.8195 -0.292486 -0.359335
Spine  -1.91144 -0.58571 2.37656
Spine1  -3.55155 -1.02638 5.63458
HEad  -65.407 2.40979 4.53826
LeftShoulder1  -1.94126e-019 -3.10601e-018 -2.51263e-017
LeftArm  11.2586 -19.7529 -82.0228
LeftForeArm  163.961 -62.6183 -160.192
LeftHand  -1.26616 -3.18233 17.2997
RightShoulder  -4.96962e-017 0 -2.36833e-017
RightArm  5.49392 17.4961 76.2909
RightForeArm  -171.51 61.0996 163.69
RightHand  -0.218498 -4.67128 -35.0325
LeftUpLeg  -6.3879 13.3449 4.29006
LeftLeg  18.7057 22.4933 5.8602
LeftFoot  -0.973334 -0.00331327 -0.228513
LeftToes  -17.0262 1.7763e-006 6.54387e-008
224
root  -17.0152 34.5221 -12.7492 -176.601 23.8214 -179.952
RightUpLeg  -12.2149 -7.98001 -1.30783
RightLeg  13.2901 10.3417 1.74277
RightFoot  3.06836 -0.00524899 0.665248
RightToes  -47.8824 -0.284311 -0.355185
Spine  -1.79853 -0.436212 2.33259
Spine1  -3.32694 -0.714958 5.5246
HEad  -64.8401 2.17452 4.34416
LeftShoulder1  -1.94126e-019 -3.10601e-018 -2.51263e-017
LeftArm  8.33096 -19.5444 -80.5297
LeftForeArm  163.982 -61.8718 -160.779
LeftHand  -1.18601 -1.81615 19.1853
RightShoulder  -4.96962e-017 0 -2.36833e-017
RightArm  0.95919 16.9972 75.596
RightForeArm  -174.565 60.9437 163.532
RightHand  0.305065 -6.29078 -37.0653
LeftUpLeg  -6.62589 13.2559 4.18363
LeftLeg  19.7507 21.1418 5.92865
LeftFoot  -1.30978 -0.00570922 -0.337914
LeftToes  -17.9009 1.7763e-006 6.54387e-008
225
root  -17.0565 34.4364 -12.8046 -177.137 22.5971 179.74
RightUpLeg  -12.9465 -7.72098 -1.69016
RightLeg  15.9407 9.15639 1.98124
RightFoot  2.61336 -0.00153251 0.539736
RightToes  -43.6123 -0.247964 -0.334605
Spine  -1.65697 -0.322515 2.31927
Spine1  -3.03256 -0.464077 5.46832
HEad  -63.9807 1.91606 4.02471
LeftShoulder1  -1.94126e-019 -3.10601e-018 -2.51263e-017
LeftArm  6.05875 -19.3886 -79.3842
LeftForeArm  163.352 -61.3667 -161.098
LeftHand  -1.14536 -1.19994 20.2142
RightShoulder  -4.96962e-017 0 -2.36833e-017
RightArm  -0.33021 17.5472 75.6868
RightForeArm  -178.852 61.6855 162.648
RightHand  0.89852 -7.86495 -39.8827
LeftUpLeg  -7.10557 13.2125 4.01913
LeftLeg  21.206 19.8924 6.12943
LeftFoot  -1.69651 -0.00909768 -0.452901
LeftToes  -18.4641 1.7763e-006 6.54387e-008
226
root  -17.0911 34.3197 -12.8492 -177.689 21.4815 179.377
RightUpLeg  -13.8729 -6.37939 -2.15582
RightLeg  19.045 6.9151 1.89372
RightFoot  1.22353 0.00197737 0.280194
RightToes  -39.8509 -0.217293 -0.314279
Spine  -1.52951 -0.160458 2.2204
Spine1  -2.78333 -0.143916 5.25158
HEad  -63.2068 1.39313 3.98935
LeftShoulder1  -1.94126e-019 -3.10601e-018 -2.51263e-017
LeftArm  7.43739 -19.5745 -78.8757
LeftForeArm  163.574 -61.3662 -161.121
LeftHand  -1.15213 -1.14187 20.5051
RightShoulder  -4.96962e-017 0 -2.36833e-017
RightArm  2.44632 18.2804 76.2578
RightForeArm  -179.203 63.1054 161.581
RightHand  0.899474 -7.89005 -39.5696
LeftUpLeg  -7.847 13.4789 3.82909
LeftLeg  23.1855 18.3933 6.37374
LeftFoot  -2.31955 -0.0159921 -0.62837
LeftToes  -18.2531 1.7763e-006 6.54387e-008
227
root  -17.1303 34.1592 -12.9001 -178.226 20.067 179.057
RightUpLeg  -14.9028 -5.92446 -2.58648
RightLeg  22.491 5.28269 1.79297
RightFoot  -0.316158 -0.00148819 0.105668
RightToes  -35.7781 -0.185666 -0.290053
Spine  -1.34673 -0.0420314 2.07945
Spine1  -2.45156 0.0518426 4.97019
HEad  -62.8087 0.551802 4.22316
LeftShoulder1  -1.94126e-019 -3.10601e-018 -2.51263e-017
LeftArm  12.8588 -20.3049 -79.3411
LeftForeArm  164.254 -61.8998 -160.792
LeftHand  -1.18489 -1.81264 19.1766
RightShoulder  -4.96962e-017 0 -2.36833e-017
RightArm  9.28438 19.3378 77.1589
RightForeArm  -178.055 64.8723 160.263
RightHand  0.502004 -6.88539 -37.0614
LeftUpLeg  -8.84419 13.6215 3.68102
LeftLeg  25.6207 16.7029 6.59978
LeftFoot  -3.24864 -0.0291355 -0.865858
LeftToes  -18.446 1.7763e-006 6.54387e-008
